<svg width="1920" height="893" viewBox="0 0 1920 893" fill="none" xmlns="http://www.w3.org/2000/svg">
<g filter="url(#filter0_dd)">
<path fill-rule="evenodd" clip-rule="evenodd" d="M1920 479.172L1840 415.948C1760 351.06 1600 222.948 1440 271.198C1280 319.448 1120 542.396 960 670.508C800 798.62 640 830.232 480 798.62C320 767.008 160 670.508 79.9998 622.258L-0.000223655 575.672L-0.000173328 1.52537e-05L79.9998 2.22475e-05C160 2.92414e-05 320 4.3229e-05 480 5.72167e-05C640 7.12043e-05 800 8.51919e-05 960 9.91796e-05C1120 0.000113167 1280 0.000127155 1440 0.000141143C1600 0.00015513 1760 0.000169118 1840 0.000176112L1920 0.000183105L1920 479.172Z" fill="white"/>
<path fill-rule="evenodd" clip-rule="evenodd" d="M1920 479.172L1840 415.948C1760 351.06 1600 222.948 1440 271.198C1280 319.448 1120 542.396 960 670.508C800 798.62 640 830.232 480 798.62C320 767.008 160 670.508 79.9998 622.258L-0.000223655 575.672L-0.000173328 1.52537e-05L79.9998 2.22475e-05C160 2.92414e-05 320 4.3229e-05 480 5.72167e-05C640 7.12043e-05 800 8.51919e-05 960 9.91796e-05C1120 0.000113167 1280 0.000127155 1440 0.000141143C1600 0.00015513 1760 0.000169118 1840 0.000176112L1920 0.000183105L1920 479.172Z" stroke="black" stroke-width="0"/>
</g>
<defs>
<filter id="filter0_dd" x="-56.0002" y="-29" width="2032" height="922" filterUnits="userSpaceOnUse" color-interpolation-filters="sRGB">
<feFlood flood-opacity="0" result="BackgroundImageFix"/>
<feColorMatrix in="SourceAlpha" type="matrix" values="0 0 0 0 0 0 0 0 0 0 0 0 0 0 0 0 0 0 127 0"/>
<feOffset dy="3.38082"/>
<feGaussianBlur stdDeviation="3.50603"/>
<feColorMatrix type="matrix" values="0 0 0 0 0.690196 0 0 0 0 0.678431 0 0 0 0 0.807843 0 0 0 0.06 0"/>
<feBlend mode="normal" in2="BackgroundImageFix" result="effect1_dropShadow"/>
<feColorMatrix in="SourceAlpha" type="matrix" values="0 0 0 0 0 0 0 0 0 0 0 0 0 0 0 0 0 0 127 0"/>
<feOffset dy="27"/>
<feGaussianBlur stdDeviation="28"/>
<feColorMatrix type="matrix" values="0 0 0 0 0.691013 0 0 0 0 0.680347 0 0 0 0 0.808333 0 0 0 0.1 0"/>
<feBlend mode="normal" in2="effect1_dropShadow" result="effect2_dropShadow"/>
<feBlend mode="normal" in="SourceGraphic" in2="effect2_dropShadow" result="shape"/>
</filter>
</defs>
</svg>
