<svg width="17" height="20" viewBox="0 0 17 20" fill="none" xmlns="http://www.w3.org/2000/svg">
<path d="M0.66511 7.17422C0.66511 6.30953 0.816263 5.49264 1.11412 4.73021C1.39871 3.98967 1.82152 3.31 2.36002 2.72743C2.89744 2.1525 3.51242 1.65535 4.1872 1.25035C4.87952 0.831515 5.62904 0.515533 6.41226 0.312313C7.20494 0.104168 8.02116 -0.000801753 8.84071 4.6105e-06C10.1066 4.6105e-06 11.2847 0.267857 12.3772 0.801338C13.4555 1.32509 14.3733 2.12887 15.0347 3.12865C15.7171 4.1456 16.056 5.29592 16.056 6.5785C16.056 7.3476 15.9805 8.10003 15.826 8.83579C15.6743 9.57114 15.4332 10.2852 15.108 10.9619C14.7981 11.6171 14.3928 12.2227 13.9055 12.7591C13.4156 13.287 12.8224 13.7084 12.1627 13.9972C11.4466 14.3111 10.6718 14.4691 9.88989 14.4607C9.34641 14.4607 8.80404 14.3329 8.26833 14.0761C7.73263 13.8205 7.34808 13.4693 7.1169 13.0192C7.03577 13.3315 6.92463 13.7827 6.77681 14.3729C6.63454 14.9619 6.53896 15.342 6.49673 15.5143C6.45227 15.6855 6.37003 15.9711 6.24999 16.3668C6.16859 16.6595 6.06416 16.9452 5.93768 17.2215L5.55536 17.9705C5.39001 18.292 5.20517 18.603 5.00187 18.9019C4.8007 19.1931 4.55174 19.541 4.255 19.9411L4.08939 20L3.97936 19.88C3.86044 18.6207 3.79931 17.8672 3.79931 17.6182C3.79931 16.8814 3.88712 16.0545 4.0605 15.1364C4.23054 14.2195 4.49951 13.067 4.86072 11.681C5.22193 10.2962 5.42865 9.48152 5.48423 9.24035C5.22971 8.72131 5.10079 8.04335 5.10079 7.20978C5.10079 6.54404 5.30862 5.92054 5.7254 5.33371C6.1433 4.7491 6.67122 4.4568 7.3114 4.4568C7.80154 4.4568 8.18164 4.61906 8.45394 4.94471C8.72735 5.26924 8.86072 5.67825 8.86072 6.17727C8.86072 6.70631 8.68511 7.47208 8.33168 8.47347C7.97825 9.47597 7.80265 10.224 7.80265 10.7208C7.80265 11.2242 7.9827 11.6455 8.3428 11.9756C8.69817 12.3058 9.16813 12.4848 9.65316 12.4746C10.0933 12.4746 10.5012 12.3745 10.8802 12.1734C11.2532 11.9781 11.5762 11.6993 11.8238 11.3587C12.363 10.6188 12.7475 9.77775 12.9541 8.8858C13.0608 8.41678 13.143 7.97111 13.1941 7.5521C13.2486 7.13087 13.2719 6.73298 13.2719 6.3551C13.2719 4.96916 12.8318 3.88886 11.9571 3.11531C11.078 2.34177 9.93324 1.95721 8.52507 1.95721C6.92351 1.95721 5.58425 2.47514 4.51173 3.51431C3.4381 4.55016 2.89795 5.86719 2.89795 7.4643C2.89795 7.81662 2.9513 8.15671 3.05244 8.48569C3.15136 8.81356 3.25916 9.07474 3.37586 9.26813C3.49145 9.45818 3.60037 9.64379 3.69929 9.81495C3.79931 9.98611 3.85155 10.1084 3.85155 10.1817C3.85155 10.4062 3.79264 10.6985 3.67372 11.0597C3.55035 11.421 3.40476 11.601 3.22915 11.601C3.21248 11.601 3.14358 11.5888 3.02354 11.5632C2.60783 11.4391 2.23241 11.2071 1.93546 10.8908C1.62031 10.563 1.37159 10.1773 1.20304 9.75493C1.03497 9.3341 0.904059 8.89935 0.811817 8.45568C0.712158 8.03588 0.662908 7.60569 0.66511 7.17422Z" fill="#5F6368"/>
</svg>
