<svg width="26" height="22" viewBox="0 0 26 22" fill="none" xmlns="http://www.w3.org/2000/svg">
<path d="M19.8802 6.26647C20.2293 5.91832 20.6588 5.66155 21.1308 5.51887C21.6028 5.37618 22.1027 5.35198 22.5862 5.4484C23.0698 5.54481 23.5221 5.75888 23.9032 6.07167C24.2843 6.38445 24.5825 6.78632 24.7713 7.24172C24.9601 7.69712 25.0338 8.19202 24.9857 8.68265C24.9377 9.17328 24.7695 9.64452 24.496 10.0547C24.2225 10.4649 23.8521 10.8013 23.4176 11.0343C22.983 11.2673 22.4978 11.3897 22.0047 11.3906H1M10.11 2.4984C10.3889 2.21797 10.7327 2.01076 11.1109 1.8952C11.4891 1.77963 11.8901 1.75929 12.2781 1.83597C12.666 1.91266 13.0291 2.084 13.3349 2.33477C13.6407 2.58553 13.8797 2.90795 14.0309 3.27336C14.182 3.63877 14.2405 4.03586 14.2011 4.42931C14.1618 4.82276 14.0258 5.2004 13.8052 5.52865C13.5847 5.85689 13.2865 6.12558 12.9371 6.31083C12.5877 6.49607 12.1979 6.59213 11.8024 6.59047H1L10.11 2.4984ZM13.7108 20.2827C13.9897 20.5632 14.3335 20.7704 14.7117 20.8859C15.0899 21.0015 15.4909 21.0218 15.8789 20.9452C16.2668 20.8685 16.6299 20.6971 16.9357 20.4464C17.2415 20.1956 17.4805 19.8732 17.6317 19.5078C17.7828 19.1424 17.8413 18.7453 17.8019 18.3518C17.7626 17.9584 17.6266 17.5807 17.4061 17.2525C17.1855 16.9242 16.8873 16.6555 16.5379 16.4703C16.1885 16.2851 15.7987 16.189 15.4032 16.1907H1L13.7108 20.2827Z" stroke="white" stroke-width="2" stroke-linecap="round" stroke-linejoin="round"/>
</svg>
